<?xml version="1.0" encoding="UTF-8"?>
<svg id="Layer_1" xmlns="http://www.w3.org/2000/svg" xmlns:xlink="http://www.w3.org/1999/xlink" version="1.1" viewBox="0 0 83.4 78.4">
  <!-- Generator: Adobe Illustrator 29.2.1, SVG Export Plug-In . SVG Version: 2.1.0 Build 116)  -->
  <defs>
    <style>
      .st0 {
        fill: url(#linear-gradient1);
      }

      .st1 {
        fill: url(#linear-gradient);
      }
    </style>
    <linearGradient id="linear-gradient" x1="51.9" y1="239.1" x2="-26.3" y2="155.8" gradientTransform="translate(12.1 220.9) scale(1 -1)" gradientUnits="userSpaceOnUse">
      <stop offset=".2" stop-color="#ff6c1b"/>
      <stop offset=".9" stop-color="#ffa235"/>
    </linearGradient>
    <linearGradient id="linear-gradient1" x1="79.7" y1="213" x2="1.4" y2="129.8" gradientTransform="translate(12.1 220.9) scale(1 -1)" gradientUnits="userSpaceOnUse">
      <stop offset=".2" stop-color="#ff6c1b"/>
      <stop offset=".9" stop-color="#ffa235"/>
    </linearGradient>
  </defs>
  <path class="st1" d="M22,14.2L4.7,9.4c-2.4-.7-4.7,1.1-4.7,3.6v52.3c0,2.5,2.3,4.2,4.7,3.6l17.3-4.8c1.3-.4,2.1-1.5,2.1-2.8V17c0-1.3-.9-2.5-2.1-2.8Z"/>
  <path class="st0" d="M78.4,0l-45.2,11.3h0c-2.8.6-2.5,4.7.3,4.9l21.9,5.6c2.5.8,4.2,3.1,4.2,5.7v22.9c0,2.7-1.8,5-4.3,5.7l-22.2,5.4c-2.8.3-3.1,4.3-.3,4.9l45.6,11.7c2.6.6,5-1.4,5-4V4.1c0-2.6-2.4-4.6-5-4Z"/>
</svg>