<svg id="Resolume" xmlns="http://www.w3.org/2000/svg" xmlns:xlink="http://www.w3.org/1999/xlink" width="77" height="77" viewBox="0 0 77 77">
  <defs>
    <style>
      .cls-1 {
        fill: #fff;
      }

      .cls-2 {
        clip-path: url(#clip-path);
      }

      .cls-3 {
        clip-path: url(#clip-path-2);
      }

      .cls-4 {
        fill: #69cba8;
      }

      .cls-5 {
        fill: #80ffd2;
      }
    </style>
    <clipPath id="clip-path">
      <rect id="Rectangle_12" data-name="Rectangle 12" class="cls-1" width="77" height="77" transform="translate(-0.5 -0.5)"/>
    </clipPath>
    <clipPath id="clip-path-2">
      <rect id="Rectangle_13" data-name="Rectangle 13" width="77" height="77"/>
    </clipPath>
  </defs>
  <g id="White" class="cls-2" transform="translate(0.5 0.5)">
    <g id="Arena" transform="translate(0 4.548)">
      <path id="A" class="cls-1" d="M356.655,250.423a94.348,94.348,0,0,0-13.061.669c-2.351.334-3.527,1.227-4.31,3.68-5.747,17.507-11.233,35.461-15.8,53.079-1.045,4.014-1.568,5.576-1.568,6.579,0,1.449,1.045,2.341,3.4,2.565q3.919.334,9.8.334h1.306c.315,0,.629,0,.942,0,.4,0,.795,0,1.205,0h1.306c3,0,6.009-.112,8.49-.334,2.09-.223,2.873-.781,3.265-2.788.392-2.119.915-5.018,1.437-7.36h13.715c.523,2.342,1.045,5.241,1.437,7.36.392,2.007,1.175,2.565,3.266,2.788,2.482.223,5.486.334,8.49.334h1.305c.41,0,.809,0,1.205,0,.314,0,.628,0,.942,0h1.306q5.878,0,9.8-.334c2.351-.223,3.4-1.115,3.4-2.565,0-1-.522-2.565-1.567-6.579-4.571-17.618-10.057-35.572-15.8-53.079-.784-2.453-1.96-3.345-4.31-3.68a94.286,94.286,0,0,0-13.061-.669Zm-.987,42.709c1.319-6.323,2.8-13.241,4.246-19.416,1.451,6.175,2.927,13.093,4.246,19.416Z" transform="translate(-321.912 -250.423)"/>
      <g id="Swirls" transform="translate(0 0)">
        <path id="Path_253" data-name="Path 253" class="cls-1" d="M437.105,250.873a112.71,112.71,0,0,0-11.375-.449h-3.5A163.467,163.467,0,0,1,447.27,267.71q-1.809-5.731-3.67-11.417Q440.4,253.5,437.105,250.873Z" transform="translate(-384.471 -250.424)"/>
        <path id="Path_254" data-name="Path 254" class="cls-1" d="M391.36,250.792a148.361,148.361,0,0,1,38.755,23.787c-.1-.309-.192-.618-.287-.926a152.611,152.611,0,0,0-35.881-22.985C393.069,250.7,392.2,250.739,391.36,250.792Z" transform="translate(-365.221 -250.576)"/>
        <path id="Path_255" data-name="Path 255" class="cls-1" d="M370.208,255.238a133.544,133.544,0,0,1,49.2,29.613l-.522-1.749a135.821,135.821,0,0,0-47.385-29.1,3.789,3.789,0,0,0-1.291,1.233Z" transform="translate(-352.03 -252.657)"/>
        <path id="Path_256" data-name="Path 256" class="cls-1" d="M364.578,270.021q-.26.8-.519,1.6a126.177,126.177,0,0,1,54.548,33.654c-.182-.642-.363-1.284-.547-1.927A127.738,127.738,0,0,0,364.578,270.021Z" transform="translate(-348.196 -262.645)"/>
        <path id="Path_257" data-name="Path 257" class="cls-1" d="M425.086,321.9q.212.935.423,1.879a124.038,124.038,0,0,1,35.008,27.992q-.269-1.034-.542-2.067A125.91,125.91,0,0,0,425.086,321.9Z" transform="translate(-386.253 -294.998)"/>
        <path id="Path_258" data-name="Path 258" class="cls-1" d="M380.089,306.156q.169-.751.339-1.493a117.525,117.525,0,0,0-24.04-9.162q-.266.842-.53,1.684a117.979,117.979,0,0,1,24.231,8.972Z" transform="translate(-343.081 -278.535)"/>
        <path id="Path_259" data-name="Path 259" class="cls-1" d="M373.813,333.854c.344,1.626.682,3.236,1.011,4.809h-8.491c.513-2.461,1.051-5.012,1.6-7.573a116.2,116.2,0,0,0-25.312-7.656q-1.852,6.094-3.609,12.2c22.73,2.645,41.875,12.206,57.986,27.224q4.814-.041,8.185-.327c1.776-.169,2.806-.72,3.2-1.6A116.2,116.2,0,0,0,373.813,333.854Z" transform="translate(-332.577 -295.954)"/>
        <path id="Path_260" data-name="Path 260" class="cls-1" d="M323.48,379.622c-1.045,4.014-1.568,5.576-1.568,6.58,0,1.449,1.045,2.341,3.4,2.565q3.919.334,9.8.334h1.306c.315,0,.629,0,.942,0,.4,0,.795,0,1.2,0h1.306c3,0,6.009-.112,8.49-.334,2.09-.223,2.873-.781,3.265-2.788.392-2.119.915-5.018,1.437-7.36h13.715c.523,2.342,1.045,5.241,1.437,7.36.392,2.006,1.175,2.565,3.265,2.788,2.482.223,5.486.334,8.49.334h1.306c.41,0,.809,0,1.205,0,.314,0,.628,0,.942,0h1.306l.5,0c-15.891-13.079-34.958-21.377-57.91-23.588Q325.311,372.587,323.48,379.622Z" transform="translate(-321.912 -322.194)"/>
      </g>
    </g>
  </g>
  <g id="Colored" class="cls-3">
    <g id="Arena-2" data-name="Arena" transform="translate(0 4.578)">
      <path id="A-2" data-name="A" class="cls-4" d="M356.882,250.423a94.966,94.966,0,0,0-13.147.673c-2.367.337-3.55,1.235-4.338,3.7-5.785,17.622-11.307,35.692-15.908,53.426-1.052,4.041-1.578,5.612-1.578,6.622,0,1.459,1.052,2.356,3.418,2.581q3.944.337,9.861.337h1.315c.317,0,.633,0,.949,0,.4,0,.8,0,1.213,0h1.315c3.024,0,6.048-.113,8.546-.337,2.1-.225,2.892-.786,3.286-2.806.395-2.133.921-5.051,1.446-7.408h13.8c.526,2.357,1.052,5.275,1.446,7.408.394,2.02,1.183,2.581,3.287,2.806,2.5.224,5.522.337,8.545.337h1.314c.413,0,.814,0,1.213,0,.316,0,.632,0,.949,0h1.315q5.916,0,9.861-.337c2.366-.225,3.418-1.123,3.418-2.581,0-1.01-.526-2.582-1.577-6.622-4.6-17.733-10.123-35.8-15.908-53.426-.789-2.469-1.972-3.367-4.339-3.7a94.9,94.9,0,0,0-13.147-.673Zm-.994,42.988c1.328-6.365,2.814-13.328,4.273-19.543,1.46,6.216,2.946,13.179,4.273,19.543Z" transform="translate(-321.912 -250.423)"/>
      <g id="Swirls-2" data-name="Swirls" transform="translate(0 0)">
        <path id="Path_253-2" data-name="Path 253" class="cls-5" d="M437.2,250.876a113.448,113.448,0,0,0-11.449-.452h-3.525a164.535,164.535,0,0,1,25.205,17.4q-1.821-5.768-3.694-11.492Q440.521,253.516,437.2,250.876Z" transform="translate(-384.224 -250.424)"/>
        <path id="Path_254-2" data-name="Path 254" class="cls-5" d="M391.36,250.793a149.331,149.331,0,0,1,39.008,23.943c-.1-.311-.193-.622-.289-.932a153.608,153.608,0,0,0-36.116-23.135C393.08,250.7,392.206,250.74,391.36,250.793Z" transform="translate(-365.05 -250.575)"/>
        <path id="Path_255-2" data-name="Path 255" class="cls-5" d="M370.208,255.246a134.416,134.416,0,0,1,49.519,29.806l-.526-1.761a136.708,136.708,0,0,0-47.694-29.286,3.814,3.814,0,0,0-1.3,1.241Z" transform="translate(-351.911 -252.648)"/>
        <path id="Path_256-2" data-name="Path 256" class="cls-5" d="M364.581,270.021q-.262.805-.522,1.612a127,127,0,0,1,54.9,33.874c-.184-.646-.366-1.293-.551-1.939A128.573,128.573,0,0,0,364.581,270.021Z" transform="translate(-348.092 -262.597)"/>
        <path id="Path_257-2" data-name="Path 257" class="cls-5" d="M425.086,321.9q.213.941.426,1.892a124.848,124.848,0,0,1,35.237,28.175q-.271-1.04-.546-2.081A126.732,126.732,0,0,0,425.086,321.9Z" transform="translate(-386 -294.822)"/>
        <path id="Path_258-2" data-name="Path 258" class="cls-5" d="M380.248,306.225q.17-.756.341-1.5a118.294,118.294,0,0,0-24.2-9.222q-.268.847-.533,1.695a118.751,118.751,0,0,1,24.39,9.03Z" transform="translate(-342.998 -278.424)"/>
        <path id="Path_259-2" data-name="Path 259" class="cls-5" d="M374.041,333.922c.347,1.637.687,3.257,1.017,4.84h-8.547c.517-2.477,1.058-5.044,1.611-7.623a116.961,116.961,0,0,0-25.477-7.706q-1.864,6.134-3.633,12.276c22.879,2.662,42.149,12.286,58.365,27.4q4.845-.041,8.239-.33c1.788-.17,2.824-.724,3.225-1.614A116.956,116.956,0,0,0,374.041,333.922Z" transform="translate(-332.535 -295.774)"/>
        <path id="Path_260-2" data-name="Path 260" class="cls-5" d="M323.49,379.714c-1.052,4.041-1.578,5.612-1.578,6.623,0,1.459,1.052,2.356,3.418,2.581q3.944.337,9.861.337h1.315c.317,0,.633,0,.949,0,.4,0,.8,0,1.213,0h1.315c3.024,0,6.048-.112,8.546-.337,2.1-.225,2.892-.786,3.286-2.806.395-2.133.921-5.051,1.446-7.408h13.8c.526,2.357,1.052,5.275,1.446,7.408.394,2.02,1.183,2.581,3.286,2.806,2.5.224,5.522.337,8.546.337h1.314c.413,0,.814,0,1.213,0,.316,0,.632,0,.949,0h1.315l.5,0c-15.994-13.164-35.187-21.517-58.288-23.742Q325.333,372.634,323.49,379.714Z" transform="translate(-321.912 -321.911)"/>
      </g>
    </g>
  </g>
</svg>
