<svg id="youtube" xmlns="http://www.w3.org/2000/svg" width="109.511" height="77" viewBox="0 0 109.511 77">
  <defs>
    <style>
      .cls-1 {
        fill: #fff;
      }
    </style>
  </defs>
  <path id="youtube-2" data-name="youtube" class="cls-1" d="M108.273,16.548A13.76,13.76,0,0,0,98.591,6.8c-8.54-2.3-42.785-2.3-42.785-2.3S21.561,4.5,13.02,6.8a13.761,13.761,0,0,0-9.682,9.745c-2.288,8.6-2.288,26.53-2.288,26.53s0,17.934,2.288,26.53A13.555,13.555,0,0,0,13.02,79.2c8.54,2.3,42.785,2.3,42.785,2.3s34.245,0,42.785-2.3a13.555,13.555,0,0,0,9.682-9.589c2.288-8.6,2.288-26.53,2.288-26.53s0-17.934-2.288-26.53ZM44.606,59.361V26.795L73.228,43.078,44.606,59.361Z" transform="translate(-1.05 -4.5)"/>
</svg>
